<?xml version="1.0" encoding="UTF-8"?>
<svg width="800" height="600" xmlns="http://www.w3.org/2000/svg">
  <!-- Background -->
  <rect width="800" height="600" fill="#2D3748"/>
  
  <!-- User Box -->
  <rect x="350" y="20" width="100" height="40" rx="4" fill="none" stroke="#CBD5E0" stroke-width="2"/>
  <text x="400" y="45" text-anchor="middle" fill="#CBD5E0" font-family="monospace">Users</text>
  
  <!-- AWS Infrastructure Box -->
  <rect x="50" y="100" width="300" height="200" rx="4" fill="#4A5568" stroke="#CBD5E0" stroke-width="2"/>
  <text x="200" y="130" text-anchor="middle" fill="#CBD5E0" font-family="monospace">AWS Infrastructure</text>
  
  <!-- CloudFront Box -->
  <rect x="100" y="150" width="200" height="40" rx="4" fill="#2D3748" stroke="#CBD5E0" stroke-width="2"/>
  <text x="200" y="175" text-anchor="middle" fill="#CBD5E0" font-family="monospace">CloudFront</text>
  
  <!-- S3 Box -->
  <rect x="100" y="230" width="200" height="40" rx="4" fill="#2D3748" stroke="#CBD5E0" stroke-width="2"/>
  <text x="200" y="255" text-anchor="middle" fill="#CBD5E0" font-family="monospace">S3 Bucket</text>
  
  <!-- Frontend Box -->
  <rect x="400" y="100" width="350" height="400" rx="4" fill="#4A5568" stroke="#CBD5E0" stroke-width="2"/>
  <text x="575" y="130" text-anchor="middle" fill="#CBD5E0" font-family="monospace">Frontend (Next.js)</text>
  
  <!-- Pages -->
  <rect x="450" y="350" width="100" height="40" rx="4" fill="#2D3748" stroke="#CBD5E0" stroke-width="2"/>
  <text x="500" y="375" text-anchor="middle" fill="#CBD5E0" font-family="monospace">Homepage</text>
  
  <rect x="600" y="350" width="100" height="40" rx="4" fill="#2D3748" stroke="#CBD5E0" stroke-width="2"/>
  <text x="650" y="375" text-anchor="middle" fill="#CBD5E0" font-family="monospace">Gallery</text>
  
  <!-- React Components Box -->
  <rect x="450" y="150" width="250" height="150" rx="4" fill="#2D3748" stroke="#CBD5E0" stroke-width="2"/>
  <text x="575" y="180" text-anchor="middle" fill="#CBD5E0" font-family="monospace">Main React Components</text>
  
  <!-- Navigation -->
  <rect x="470" y="200" width="60" height="80" rx="4" fill="#2D3748" stroke="#CBD5E0" stroke-width="2"/>
  <text x="500" y="245" text-anchor="middle" fill="#CBD5E0" font-family="monospace" font-size="10">Navigation</text>
  
  <!-- Hero Section -->
  <rect x="540" y="200" width="60" height="80" rx="4" fill="#2D3748" stroke="#CBD5E0" stroke-width="2"/>
  <text x="570" y="245" text-anchor="middle" fill="#CBD5E0" font-family="monospace" font-size="10">Hero</text>
  
  <!-- Features -->
  <rect x="610" y="200" width="60" height="80" rx="4" fill="#2D3748" stroke="#CBD5E0" stroke-width="2"/>
  <text x="640" y="245" text-anchor="middle" fill="#CBD5E0" font-family="monospace" font-size="10">Features</text>
  
  <!-- Connections -->
  <path d="M 400 40 L 200 150" stroke="#CBD5E0" stroke-width="2" fill="none"/>
  <path d="M 200 190 L 200 230" stroke="#CBD5E0" stroke-width="2" fill="none"/>
  <path d="M 200 270 L 450 350" stroke="#CBD5E0" stroke-width="2" fill="none"/>
  
  <path d="M 500 280 L 500 350" stroke="#CBD5E0" stroke-width="2" fill="none"/>
  <path d="M 570 280 L 500 350" stroke="#CBD5E0" stroke-width="2" fill="none"/>
  <path d="M 640 280 L 500 350" stroke="#CBD5E0" stroke-width="2" fill="none"/>
</svg>